:SAMPLES-PER-SECOND 30
:FULLY-SPECIFIED
:DEGREES
135
root  -20.7323 37.7374 21.0266 175.892 53.4677 173.932
RightUpLeg  12.4399 -26.6146 -13.7445
RightLeg  45.6598 9.1264 9.5357
RightFoot  12.0039 -4.57287 22.376
RightToes  0.000482159 0.542163 -0.142577
Spine  16.6785 8.13465 7.97238
Spine1  3.61013 13.4358 -17.5344
HEad  -54.01 63.5443 -48.288
LeftShoulder1  6.01591 -8.42507 -43.8582
LeftArm  -13.7259 49.6317 -20.1473
LeftForeArm  -1.18002 -2.59472 -0.652032
LeftHand  -0.25398 0.0180481 5.50724
RightShoulder  4.25136 7.29329 33.4305
RightArm  -14.0231 -14.9177 35.2804
RightForeArm  7.21872 56.7031 16.7627
RightHand  -0.634077 -0.460114 -14.8836
LeftUpLeg  -21.4575 4.35349 -20.3674
LeftLeg  27.9836 9.76746 5.8393
LeftFoot  -9.80188 -0.191177 17.1724
LeftToes  1.06248e-005 4.65856e-005 -8.18499e-006
136
root  -19.2452 37.6232 20.8531 172.328 52.9516 170.777
RightUpLeg  5.19206 -21.4136 -14.1526
RightLeg  56.4171 5.71208 8.65456
RightFoot  16.301 -4.98167 20.4978
RightToes  0.000482159 0.542163 -0.142577
Spine  17.9445 7.75515 5.87976
Spine1  4.3271 12.9623 -17.6643
HEad  -54.4757 62.9929 -48.9682
LeftShoulder1  6.32724 -8.74145 -44.9923
LeftArm  -14.8614 42.9886 -21.2845
LeftForeArm  4.38628 -3.42616 -1.09901
LeftHand  -0.25398 0.0180481 5.50724
RightShoulder  4.34878 7.54522 33.4144
RightArm  -12.7677 -13.6865 36.0174
RightForeArm  15.0011 63.5457 21.8664
RightHand  -0.583345 -0.948 -15.1126
LeftUpLeg  -19.6978 4.61932 -20.8391
LeftLeg  31.3538 9.2422 6.37117
LeftFoot  -12.7947 0.252609 13.7668
LeftToes  1.06248e-005 4.65856e-005 -8.18499e-006
137
root  -17.6885 37.8431 20.5461 170.908 52.3521 169.328
RightUpLeg  -2.16119 -17.6763 -14.1762
RightLeg  64.1275 1.64933 3.12265
RightFoot  13.4857 -3.23962 14.9451
RightToes  0.000482159 0.542163 -0.142577
Spine  17.9679 7.34834 5.25821
Spine1  4.76658 12.5608 -17.7014
HEad  -53.2466 63.6152 -48.3975
LeftShoulder1  6.62235 -9.0101 -46.1208
LeftArm  -16.1887 35.2989 -22.0528
LeftForeArm  11.2444 -5.67519 -1.52824
LeftHand  -0.25398 0.0180481 5.50724
RightShoulder  4.38661 7.67479 33.2971
RightArm  -10.9003 -13.0256 36.4501
RightForeArm  21.8445 67.8393 26.6816
RightHand  -0.577341 -1.02101 -15.1971
LeftUpLeg  -16.4111 5.84756 -20.376
LeftLeg  30.6947 7.80584 5.33552
LeftFoot  -15.0146 0.473271 11.7592
LeftToes  1.06248e-005 4.65856e-005 -8.18499e-006
138
root  -16.1198 38.3177 20.1596 171.546 50.9565 169.747
RightUpLeg  -8.67132 -16.1365 -13.899
RightLeg  67.2846 -1.37135 -4.18059
RightFoot  8.56048 -1.48769 8.85
RightToes  0.000482159 0.542163 -0.142577
Spine  17.5963 6.4546 5.75297
Spine1  4.35978 11.6374 -17.5067
HEad  -51.1705 64.7256 -46.9528
LeftShoulder1  6.92249 -9.32282 -47.0638
LeftArm  -18.1588 27.9147 -22.8975
LeftForeArm  17.5694 -10.1725 -1.94591
LeftHand  -0.25398 0.0180481 5.50724
RightShoulder  4.4044 7.70077 33.3648
RightArm  -8.92721 -13.0423 36.6022
RightForeArm  26.7559 69.7931 29.4701
RightHand  -0.534527 -1.20589 -14.6529
LeftUpLeg  -12.3682 5.56572 -18.8351
LeftLeg  27.7681 7.06836 4.36764
LeftFoot  -15.7477 0.52754 11.1996
LeftToes  1.06248e-005 4.65856e-005 -8.18499e-006
139
root  -14.6152 38.8441 19.8006 173.044 48.7332 171.255
RightUpLeg  -13.8827 -16.2479 -13.5909
RightLeg  66.039 -3.21273 -8.52177
RightFoot  5.17104 -0.777167 5.65361
RightToes  0.000482159 0.542163 -0.142577
Spine  17.5828 5.37852 6.58988
Spine1  3.61879 10.3887 -16.9692
HEad  -49.0961 65.0462 -45.2333
LeftShoulder1  7.14395 -9.64476 -47.3914
LeftArm  -19.0491 20.6011 -24.2949
LeftForeArm  22.0469 -16.1734 -2.73225
LeftHand  -0.25398 0.0180481 5.50724
RightShoulder  4.4431 7.74954 33.5371
RightArm  -7.78246 -14.0367 36.6217
RightForeArm  28.843 70.1269 29.801
RightHand  -0.487606 -1.38902 -13.9491
LeftUpLeg  -8.11221 4.61037 -16.3892
LeftLeg  24.2025 5.4019 3.01083
LeftFoot  -15.7442 0.453236 9.29139
LeftToes  1.06248e-005 4.65856e-005 -8.18499e-006
140
root  -13.1096 39.3184 19.445 174.487 46.5002 173.193
RightUpLeg  -17.6762 -17.0232 -13.1998
RightLeg  61.3207 -4.57377 -9.52709
RightFoot  3.21793 -0.600083 4.88198
RightToes  0.000482159 0.542163 -0.142577
Spine  17.8573 4.56976 7.54289
Spine1  3.12603 9.39284 -16.0253
HEad  -47.6353 64.5032 -43.9271
LeftShoulder1  7.20475 -9.86854 -46.9892
LeftArm  -17.2914 12.8431 -26.3843
LeftForeArm  25.0823 -22.334 -3.59202
LeftHand  -0.25398 0.0180481 5.50724
RightShoulder  4.52985 7.93342 33.6604
RightArm  -7.57224 -15.757 36.478
RightForeArm  27.2911 69.0535 27.9765
RightHand  -0.493097 -1.31624 -13.8627
LeftUpLeg  -3.4905 4.91679 -13.1688
LeftLeg  20.3271 2.00176 1.13849
LeftFoot  -15.5679 0.345754 6.81903
LeftToes  1.06248e-005 4.65856e-005 -8.18499e-006
